<svg width="15" height="15" viewBox="0 0 15 15" fill="none" xmlns="http://www.w3.org/2000/svg">
<path d="M5.21736 10.4349H9.13041V9.13053H6.52171V7.82618H9.13041V6.52183H6.52171V5.21749H9.13041V3.91314H5.21736V10.4349ZM2.60867 13.0436C2.24997 13.0436 1.94302 12.916 1.6878 12.6607C1.43258 12.4055 1.30476 12.0984 1.30432 11.7392V2.60879C1.30432 2.2501 1.43215 1.94314 1.6878 1.68792C1.94345 1.4327 2.25041 1.30488 2.60867 1.30444H11.7391C12.0978 1.30444 12.405 1.43227 12.6606 1.68792C12.9163 1.94357 13.0439 2.25053 13.0435 2.60879V11.7392C13.0435 12.0979 12.9158 12.4051 12.6606 12.6607C12.4054 12.9164 12.0982 13.044 11.7391 13.0436H2.60867Z" fill="white" fill-opacity="0.25"/>
</svg>
